<svg width="460" height="398" viewBox="0 0 460 398" fill="none" xmlns="http://www.w3.org/2000/svg">
<path d="M65.5444 0.275909H104.783L118.375 48.2834L132.185 0.275909H171.424L145.776 74.5889L156.956 107.032L190.495 0.275909H236.968L176.027 155.917H140.515L118.375 100.237L96.4534 155.917H60.941L0 0.275909H46.2538L80.0125 107.032L90.7538 74.5889L65.5444 0.275909Z" fill="url(#paint0_linear)"/>
<path d="M380.645 158.474C368.808 158.474 358.066 156.209 348.421 151.678C338.776 147.148 330.519 141.229 323.65 133.922C316.781 126.469 311.447 117.993 307.648 108.494C303.848 98.9943 301.948 89.2029 301.948 79.1191C301.948 68.8892 303.921 59.0246 307.867 49.5255C311.813 40.0263 317.293 31.6962 324.308 24.5353C331.469 17.2282 339.872 11.4556 349.517 7.21751C359.309 2.83326 369.977 0.641134 381.522 0.641134C393.359 0.641134 404.101 2.90633 413.746 7.43672C423.392 11.9671 431.649 17.9589 438.517 25.4121C445.386 32.8653 450.647 41.3415 454.3 50.8407C458.1 60.3399 460 70.0583 460 79.9959C460 90.2259 458.027 100.09 454.081 109.59C450.135 118.943 444.655 127.273 437.64 134.58C430.626 141.741 422.222 147.513 412.431 151.898C402.786 156.282 392.19 158.474 380.645 158.474ZM345.352 79.5575C345.352 84.8186 346.083 89.9336 347.544 94.9024C349.006 99.7251 351.198 104.036 354.121 107.836C357.043 111.636 360.697 114.705 365.081 117.043C369.612 119.381 374.946 120.55 381.084 120.55C387.222 120.55 392.556 119.381 397.086 117.043C401.616 114.558 405.27 111.416 408.047 107.617C410.97 103.671 413.089 99.2135 414.404 94.2447C415.865 89.2759 416.596 84.2341 416.596 79.1191C416.596 73.858 415.865 68.8161 414.404 63.9935C412.942 59.0247 410.677 54.7135 407.608 51.0599C404.685 47.2603 400.959 44.2644 396.428 42.0722C392.044 39.734 386.856 38.5648 380.864 38.5648C374.726 38.5648 369.392 39.734 364.862 42.0722C360.478 44.4105 356.824 47.5526 353.901 51.4984C350.978 55.298 348.786 59.6823 347.325 64.6511C346.01 69.4738 345.352 74.4426 345.352 79.5575Z" fill="url(#paint1_linear)"/>
<path d="M51.5198 397.549V241.908H122.983C130.582 241.908 137.597 243.516 144.027 246.731C150.458 249.8 155.938 253.892 160.468 259.007C165.145 263.975 168.798 269.748 171.429 276.324C174.059 282.755 175.375 289.258 175.375 295.834C175.375 304.895 173.402 313.371 169.456 321.263C165.51 329.008 160.03 335.366 153.015 340.334L185.897 397.549H137.67L110.269 349.76H94.2662V397.549H51.5198ZM94.2662 312.494H121.229C123.86 312.494 126.271 311.033 128.463 308.11C130.802 305.187 131.971 301.095 131.971 295.834C131.971 290.427 130.655 286.335 128.025 283.558C125.394 280.636 122.764 279.174 120.133 279.174H94.2662V312.494Z" fill="url(#paint2_linear)"/>
<path d="M309.487 397.724V242.083H352.234V301.271L399.584 242.083H447.81L391.254 311.793L451.756 397.724H402.653L364.071 340.51L352.234 352.786V397.724H309.487Z" fill="url(#paint3_linear)"/>
<defs>
<linearGradient id="paint0_linear" x1="0" y1="0.275909" x2="393.24" y2="455.406" gradientUnits="userSpaceOnUse">
<stop stop-color="#6044D0"/>
<stop offset="1" stop-color="#4D36A6"/>
</linearGradient>
<linearGradient id="paint1_linear" x1="0" y1="0.275909" x2="393.24" y2="455.406" gradientUnits="userSpaceOnUse">
<stop stop-color="#6044D0"/>
<stop offset="1" stop-color="#4D36A6"/>
</linearGradient>
<linearGradient id="paint2_linear" x1="0" y1="0.275909" x2="393.24" y2="455.406" gradientUnits="userSpaceOnUse">
<stop stop-color="#6044D0"/>
<stop offset="1" stop-color="#4D36A6"/>
</linearGradient>
<linearGradient id="paint3_linear" x1="0" y1="0.275909" x2="393.24" y2="455.406" gradientUnits="userSpaceOnUse">
<stop stop-color="#6044D0"/>
<stop offset="1" stop-color="#4D36A6"/>
</linearGradient>
</defs>
</svg>
